<svg xmlns="http://www.w3.org/2000/svg" xmlns:xlink="http://www.w3.org/1999/xlink" version="1.1" viewBox="0 0 70 70">
  <path fill="#20A849" d="M35,0h26.3c4.8,0,8.8,3.9,8.8,8.8V35c0,19.3-15.7,35-35,35l0,0C15.7,70,0,54.4,0,35.1c0,0,0,0,0-0.1l0,0 C0,15.7,15.7,0,35,0z"/>
  <path fill="#fff" d="M45.8,20.8H28.3c-4.8,0-8.8,3.9-8.8,8.8l0,0v14.9c0,1.1,0.9,1.9,1.9,1.9l0,0h24.3c4.8,0,8.8-3.9,8.8-8.8 v-8.1C54.5,24.7,50.6,20.8,45.8,20.8z M39.5,39.5H26.8c-0.9,0.1-1.8-0.6-1.8-1.6c-0.1-0.9,0.6-1.8,1.6-1.8c0.1,0,0.2,0,0.3,0     h12.7c0.9,0.1,1.6,0.9,1.6,1.8C41,38.8,40.3,39.4,39.5,39.5z M47.2,31.2H26.8c-0.9,0.1-1.8-0.6-1.8-1.6c-0.1-0.9,0.6-1.8,1.6-1.8     c0.1,0,0.2,0,0.3,0h20.4c0.9,0.1,1.6,0.9,1.6,1.8C48.7,30.4,48.1,31.1,47.2,31.2z"/>
</svg>